HIERARCHY
ROOT Hips
{
	OFFSET 0.000003 96.368652 -0.035689
	CHANNELS 6 Xposition Yposition Zposition Xrotation Yrotation Zrotation
	JOINT Spine
	{
		OFFSET 0.000010 9.226303 1.577100
		CHANNELS 6 Xposition Yposition Zposition Xrotation Yrotation Zrotation
		JOINT Spine1
		{
			OFFSET 0.000000 16.253998 -0.165600
			CHANNELS 6 Xposition Yposition Zposition Xrotation Yrotation Zrotation
			JOINT Spine2
			{
				OFFSET -0.000000 13.639587 -1.292299
				CHANNELS 6 Xposition Yposition Zposition Xrotation Yrotation Zrotation
				JOINT Neck
				{
					OFFSET 0.000000 13.877411 -4.354199
					CHANNELS 6 Xposition Yposition Zposition Xrotation Yrotation Zrotation
					JOINT Neck1
					{
						OFFSET 0.000000 4.339996 0.926899
						CHANNELS 6 Xposition Yposition Zposition Xrotation Yrotation Zrotation
						JOINT Head
						{
							OFFSET 0.000000 4.026611 0.858500
							CHANNELS 6 Xposition Yposition Zposition Xrotation Yrotation Zrotation
							JOINT HeadTop_End
							{
								OFFSET 0.000000 21.748810 0.000000
								CHANNELS 6 Xposition Yposition Zposition Xrotation Yrotation Zrotation
								End Site
								{
									OFFSET 0.000000 11.825378 0.000000
								}
							}
							JOINT L_Eye
							{
								OFFSET 3.005700 7.261795 7.955601
								CHANNELS 6 Xposition Yposition Zposition Xrotation Yrotation Zrotation
								End Site
								{
									OFFSET 0.000000 11.825378 0.000000
								}
							}
							JOINT R_Eye
							{
								OFFSET -3.005700 7.261795 7.955601
								CHANNELS 6 Xposition Yposition Zposition Xrotation Yrotation Zrotation
								End Site
								{
									OFFSET 0.000000 11.825378 0.000000
								}
							}
							JOINT Jaw
							{
								OFFSET 0.000000 2.030289 2.456200
								CHANNELS 6 Xposition Yposition Zposition Xrotation Yrotation Zrotation
								End Site
								{
									OFFSET 0.000000 11.825378 0.000000
								}
							}
						}
					}
				}
				JOINT L_Shoulder
				{
					OFFSET 6.144200 10.187012 -3.793198
					CHANNELS 6 Xposition Yposition Zposition Xrotation Yrotation Zrotation
					JOINT L_Arm
					{
						OFFSET 12.319103 -1.112991 -1.793500
						CHANNELS 3 Xrotation Yrotation Zrotation
						JOINT L_ForeArm
						{
							OFFSET 27.687006 -0.000015 -0.000000
							CHANNELS 3 Xrotation Yrotation Zrotation
							JOINT L_Hand
							{
								OFFSET 27.873787 0.000031 -0.000000
								CHANNELS 3 Xrotation Yrotation Zrotation
								JOINT L_HandThumb1
								{
									OFFSET 2.421021 -1.395554 2.392360
									CHANNELS 6 Xposition Yposition Zposition Xrotation Yrotation Zrotation
									JOINT L_HandThumb2
									{
										OFFSET 3.496521 -2.018692 2.018717
										CHANNELS 6 Xposition Yposition Zposition Xrotation Yrotation Zrotation
										JOINT L_HandThumb3
										{
											OFFSET 4.011398 -2.315994 2.315975
											CHANNELS 6 Xposition Yposition Zposition Xrotation Yrotation Zrotation
											JOINT L_HandThumb4
											{
												OFFSET 2.095787 -1.210007 1.209984
												CHANNELS 6 Xposition Yposition Zposition Xrotation Yrotation Zrotation
												End Site
												{
													OFFSET 1.877617 -1.197205 1.536803
												}
											}
										}
									}
								}
								JOINT L_HandIndex1
								{
									OFFSET 10.514771 -0.231369 2.264849
									CHANNELS 6 Xposition Yposition Zposition Xrotation Yrotation Zrotation
									JOINT L_HandIndex2
									{
										OFFSET 5.549301 0.000000 0.000000
										CHANNELS 3 Xrotation Yrotation Zrotation
										JOINT L_HandIndex3
										{
											OFFSET 3.391098 0.000000 0.000001
											CHANNELS 3 Xrotation Yrotation Zrotation
											JOINT L_HandIndex4
											{
												OFFSET 2.334351 0.000000 0.000011
												CHANNELS 6 Xposition Yposition Zposition Xrotation Yrotation Zrotation
												End Site
												{
													OFFSET 2.334351 0.000000 0.000101
												}
											}
										}
									}
								}
								JOINT L_HandMiddle1
								{
									OFFSET 10.490761 -0.000015 0.000002
									CHANNELS 6 Xposition Yposition Zposition Xrotation Yrotation Zrotation
									JOINT L_HandMiddle2
									{
										OFFSET 5.792099 0.000000 0.000000
										CHANNELS 3 Xrotation Yrotation Zrotation
										JOINT L_HandMiddle3
										{
											OFFSET 3.713196 0.000000 0.000000
											CHANNELS 3 Xrotation Yrotation Zrotation
											JOINT L_HandMiddle4
											{
												OFFSET 2.752045 -0.000031 0.000022
												CHANNELS 6 Xposition Yposition Zposition Xrotation Yrotation Zrotation
												End Site
												{
													OFFSET 2.752045 0.000031 -0.003599
												}
											}
										}
									}
								}
								JOINT L_HandRing1
								{
									OFFSET 10.240753 -0.046051 -2.314147
									CHANNELS 6 Xposition Yposition Zposition Xrotation Yrotation Zrotation
									JOINT L_HandRing2
									{
										OFFSET 5.445206 -0.000015 0.000676
										CHANNELS 3 Xrotation Yrotation Zrotation
										JOINT L_HandRing3
										{
											OFFSET 3.713196 0.000015 -0.000674
											CHANNELS 3 Xrotation Yrotation Zrotation
											JOINT L_HandRing4
											{
												OFFSET 2.280716 0.000000 -0.000046
												CHANNELS 3 Xrotation Yrotation Zrotation
												End Site
												{
													OFFSET 2.280716 -0.000061 0.003501
												}
											}
										}
									}
								}
								JOINT L_HandPinky1
								{
									OFFSET 9.820259 -0.209747 -4.418469
									CHANNELS 6 Xposition Yposition Zposition Xrotation Yrotation Zrotation
									JOINT L_HandPinky2
									{
										OFFSET 3.676300 0.000000 0.000000
										CHANNELS 3 Xrotation Yrotation Zrotation
										JOINT L_HandPinky3
										{
											OFFSET 2.811295 0.000000 0.000001
											CHANNELS 3 Xrotation Yrotation Zrotation
											JOINT L_HandPinky4
											{
												OFFSET 1.659546 0.000000 0.000000
												CHANNELS 3 Xrotation Yrotation Zrotation
												End Site
												{
													OFFSET 1.659546 0.000015 -0.001891
												}
											}
										}
									}
								}
							}
						}
					}
				}
				JOINT R_Shoulder
				{
					OFFSET -6.140200 10.187012 -3.793198
					CHANNELS 6 Xposition Yposition Zposition Xrotation Yrotation Zrotation
					JOINT R_Arm
					{
						OFFSET -12.323095 -1.113007 -1.793499
						CHANNELS 3 Xrotation Yrotation Zrotation
						JOINT R_ForeArm
						{
							OFFSET -27.687002 0.000015 -0.000002
							CHANNELS 3 Xrotation Yrotation Zrotation
							JOINT R_Hand
							{
								OFFSET -27.873795 -0.000015 0.000000
								CHANNELS 3 Xrotation Yrotation Zrotation
								JOINT R_HandPinky1
								{
									OFFSET -9.791023 -0.212921 -4.378341
									CHANNELS 6 Xposition Yposition Zposition Xrotation Yrotation Zrotation
									JOINT R_HandPinky2
									{
										OFFSET -3.652802 0.000000 0.000000
										CHANNELS 3 Xrotation Yrotation Zrotation
										JOINT R_HandPinky3
										{
											OFFSET -2.781998 0.000000 0.000000
											CHANNELS 3 Xrotation Yrotation Zrotation
											JOINT R_HandPinky4
											{
												OFFSET -1.612122 0.000198 0.000004
												CHANNELS 3 Xrotation Yrotation Zrotation
												End Site
												{
													OFFSET -1.612106 0.000320 -0.007100
												}
											}
										}
									}
								}
								JOINT R_HandRing1
								{
									OFFSET -10.391914 0.105164 -2.349891
									CHANNELS 6 Xposition Yposition Zposition Xrotation Yrotation Zrotation
									JOINT R_HandRing2
									{
										OFFSET -5.401306 0.000000 0.000000
										CHANNELS 3 Xrotation Yrotation Zrotation
										JOINT R_HandRing3
										{
											OFFSET -3.391602 0.000000 0.000000
											CHANNELS 3 Xrotation Yrotation Zrotation
											JOINT R_HandRing4
											{
												OFFSET -2.353172 0.000305 -0.000032
												CHANNELS 3 Xrotation Yrotation Zrotation
												End Site
												{
													OFFSET -2.353180 0.000275 0.001400
												}
											}
										}
									}
								}
								JOINT R_HandMiddle1
								{
									OFFSET -10.779236 0.000000 0.000001
									CHANNELS 6 Xposition Yposition Zposition Xrotation Yrotation Zrotation
									JOINT R_HandMiddle2
									{
										OFFSET -5.616806 0.000000 0.000000
										CHANNELS 3 Xrotation Yrotation Zrotation
										JOINT R_HandMiddle3
										{
											OFFSET -3.736397 0.000000 0.000000
											CHANNELS 3 Xrotation Yrotation Zrotation
											JOINT R_HandMiddle4
											{
												OFFSET -2.691521 0.000336 -0.000028
												CHANNELS 3 Xrotation Yrotation Zrotation
												End Site
												{
													OFFSET -2.691513 0.000214 0.009200
												}
											}
										}
									}
								}
								JOINT R_HandIndex1
								{
									OFFSET -10.577324 -0.175369 2.287349
									CHANNELS 6 Xposition Yposition Zposition Xrotation Yrotation Zrotation
									JOINT R_HandIndex2
									{
										OFFSET -5.376801 0.000000 0.000001
										CHANNELS 3 Xrotation Yrotation Zrotation
										JOINT R_HandIndex3
										{
											OFFSET -3.385498 0.000000 0.000001
											CHANNELS 3 Xrotation Yrotation Zrotation
											JOINT R_HandIndex4
											{
												OFFSET -2.363556 0.000305 0.000042
												CHANNELS 3 Xrotation Yrotation Zrotation
												End Site
												{
													OFFSET -2.363548 0.000381 -0.006501
												}
											}
										}
									}
								}
								JOINT R_HandThumb1
								{
									OFFSET -2.570442 -1.245102 2.319054
									CHANNELS 6 Xposition Yposition Zposition Xrotation Yrotation Zrotation
									JOINT R_HandThumb2
									{
										OFFSET -3.518791 -2.031555 2.031563
										CHANNELS 6 Xposition Yposition Zposition Xrotation Yrotation Zrotation
										JOINT R_HandThumb3
										{
											OFFSET -3.945267 -2.277756 2.277756
											CHANNELS 6 Xposition Yposition Zposition Xrotation Yrotation Zrotation
											JOINT R_HandThumb4
											{
												OFFSET -2.055496 -1.186386 1.186664
												CHANNELS 3 Xrotation Yrotation Zrotation
												End Site
												{
													OFFSET -1.840202 -1.174805 1.508071
												}
											}
										}
									}
								}
							}
						}
					}
				}
			}
		}
	}
	JOINT L_UpLeg
	{
		OFFSET 9.633796 -3.273308 -0.000000
		CHANNELS 6 Xposition Yposition Zposition Xrotation Yrotation Zrotation
		JOINT L_Leg
		{
			OFFSET -0.006490 -41.762173 -0.553830
			CHANNELS 3 Xrotation Yrotation Zrotation
			JOINT L_Foot
			{
				OFFSET 0.006493 -39.146984 -2.021915
				CHANNELS 3 Xrotation Yrotation Zrotation
				JOINT L_ToeBase
				{
					OFFSET -0.183300 -12.185708 8.282301
					CHANNELS 6 Xposition Yposition Zposition Xrotation Yrotation Zrotation
					JOINT L_Toe_End
					{
						OFFSET -0.094684 -0.116787 6.663326
						CHANNELS 3 Xrotation Yrotation Zrotation
						End Site
						{
							OFFSET -0.094684 -0.116787 6.663328
						}
					}
				}
			}
		}
	}
	JOINT R_UpLeg
	{
		OFFSET -9.633803 -3.273293 0.000000
		CHANNELS 6 Xposition Yposition Zposition Xrotation Yrotation Zrotation
		JOINT R_Leg
		{
			OFFSET -0.006491 -41.762146 -0.555884
			CHANNELS 3 Xrotation Yrotation Zrotation
			JOINT R_Foot
			{
				OFFSET 0.006493 -39.147087 -2.019920
				CHANNELS 3 Xrotation Yrotation Zrotation
				JOINT R_ToeBase
				{
					OFFSET -0.183299 -12.185700 8.282300
					CHANNELS 6 Xposition Yposition Zposition Xrotation Yrotation Zrotation
					JOINT R_Toe_End
					{
						OFFSET 0.094687 -0.116863 6.675869
						CHANNELS 3 Xrotation Yrotation Zrotation
						End Site
						{
							OFFSET 0.094687 -0.116863 6.675869
						}
					}
				}
			}
		}
	}
}
MOTION
Frames: 4
Frame Time: 0.033333
0.010779 92.719818 -0.035468 -16.903053 -38.975218 -9.380557 0.000009 9.226299 1.577101 7.991560 -0.060970 -0.150966 -0.000000 16.253996 -0.165601 16.413459 -0.125507 -0.745998 0.000000 13.639595 -1.292300 16.413510 -0.192908 -0.721095 0.000000 13.877402 -4.354199 0.367397 7.480954 0.837551 0.000001 4.340027 0.926900 0.000003 0.000003 -0.000002 0.000003 4.026610 0.858505 -6.982155 21.597265 11.883001 0.000002 21.748825 0.000002 -0.000001 -0.000002 0.000002 3.005702 7.261795 7.955604 -0.000001 -0.000002 0.000002 -3.005696 7.261795 7.955603 -0.000001 -0.000002 0.000002 0.000000 2.030273 2.456205 -0.000001 -0.000002 0.000002 6.144199 10.187022 -3.793193 -37.571081 -4.822552 1.545840 -41.628466 -7.015738 -61.684360 0.000138 -64.995500 0.000105 -119.360028 1.120137 32.550090 2.421035 -1.395553 2.392366 4.709433 9.560597 3.111873 3.496505 -2.018692 2.018721 19.473170 -1.474870 7.636983 4.011401 -2.316002 2.315971 -4.536151 -9.613131 1.492939 2.095774 -1.210025 1.209980 -0.000003 0.000003 0.000006 10.514780 -0.231378 2.264851 -0.212717 3.934002 -36.747101 2.942388 5.079324 -60.144569 0.513739 2.401025 -24.150471 2.334351 0.000004 0.000017 -0.000000 -0.000001 -0.000003 10.490757 -0.000016 0.000003 0.406102 5.507431 -52.453124 3.387412 5.309025 -65.057429 0.282037 1.797598 -17.832348 2.752059 -0.000032 0.000032 -0.000001 -0.000001 -0.000003 10.240755 -0.046044 -2.314147 -0.067894 5.740628 -61.061802 4.045370 5.559642 -72.093862 0.582191 2.558479 -25.747776 -0.000000 -0.000001 -0.000002 9.820267 -0.209749 -4.418463 -6.565241 4.545578 -72.425188 3.299920 5.267630 -64.107800 0.175368 1.424128 -14.038863 -0.000000 0.000004 0.000002 -6.140201 10.186996 -3.793201 -41.176308 -8.605670 -9.942262 -46.819697 58.242976 100.948693 0.000274 98.442963 -0.000214 -52.463749 -17.216298 -29.273320 -9.791035 -0.212905 -4.378351 -3.996051 -3.304564 64.593830 4.059445 -4.619357 82.610510 2.316010 -4.027435 59.794474 -0.000001 0.000001 0.000001 -10.391917 0.105188 -2.349904 -3.348730 -2.601013 57.010534 5.441669 -4.591618 99.698161 1.689066 -3.590750 50.389464 -0.000000 -0.000001 0.000000 -10.779233 0.000018 -0.000013 3.413307 -7.186816 51.650198 6.297781 -4.360261 110.634694 0.248563 -1.502729 18.797425 0.000000 -0.000000 0.000000 -10.577339 -0.175349 2.287346 -0.920016 1.683436 12.434987 0.748236 -2.533838 32.898265 0.616226 -2.317290 29.775113 -0.000000 0.000000 -0.000000 -2.570424 -1.245123 2.319037 8.377481 -4.904318 11.022406 -3.518813 -2.031537 2.031542 21.620030 -18.183932 -18.379365 -3.945259 -2.277751 2.277737 -0.699487 -49.821459 -32.527000 -0.000001 0.000002 0.000001 9.633794 -3.273313 -0.000000 -19.589927 43.966054 26.717502 22.362362 0.529929 -0.655821 1.683240 1.281030 -2.748246 -0.183301 -12.185707 8.282298 -0.000223 0.000004 -0.000001 0.000000 -0.000000 -0.000000 -9.633806 -3.273283 0.000001 4.907229 5.071722 -5.711657 31.242918 -0.254792 1.091834 -21.622554 -17.478469 4.264719 -0.183300 -12.185701 8.282301 -0.020499 -0.000004 0.000001 0.000000 -0.000001 -0.000000 
-0.587448 92.724426 -0.036587 -16.903368 -38.976703 -9.377623 0.000011 9.226301 1.577100 8.097999 0.452806 -0.159393 0.000000 16.253992 -0.165595 15.564555 0.150590 2.222792 0.000002 13.639592 -1.292302 15.523142 0.334179 2.761781 0.000001 13.877397 -4.354190 -3.000403 9.571368 4.500678 -0.000006 4.339996 0.926905 0.000000 -0.000001 -0.000001 -0.000002 4.026609 0.858503 -4.816955 27.821886 0.117390 0.000002 21.748779 0.000000 0.000000 0.000000 -0.000000 3.005703 7.261780 7.955600 0.000000 0.000000 -0.000000 -3.005698 7.261780 7.955602 0.000000 0.000000 -0.000000 0.000009 2.030273 2.456198 0.000000 0.000000 -0.000000 6.144201 10.186989 -3.793198 -37.366763 -4.173784 1.791006 -33.406585 3.465416 -66.080755 0.000170 -68.966483 0.000115 -117.159068 0.292328 30.281715 2.421027 -1.395553 2.392362 4.494066 8.052825 2.567902 3.496510 -2.018707 2.018726 19.454614 -3.045082 7.032008 4.011419 -2.315985 2.315981 -4.536153 -9.613130 1.492940 2.095781 -1.210011 1.209987 0.000001 -0.000001 0.000002 10.514800 -0.231373 2.264851 -0.350566 3.203980 -29.931941 2.356598 4.696061 -53.277408 0.266326 1.748009 -17.324280 2.334326 0.000015 0.000011 0.000000 -0.000000 0.000001 10.490782 -0.000020 0.000002 0.104232 4.897197 -46.199068 2.821494 5.008267 -58.769823 0.119756 1.179692 -11.591434 2.752032 -0.000067 0.000023 -0.000001 0.000000 0.000005 10.240763 -0.046031 -2.314149 -0.309102 5.262022 -56.519675 3.607501 5.398435 -67.516270 0.397004 2.132209 -21.204447 -0.000001 0.000001 -0.000002 9.820256 -0.209736 -4.418468 -6.633598 4.020382 -70.031849 2.927882 5.070975 -59.980392 0.119046 1.176297 -11.557504 -0.000004 -0.000003 -0.000002 -6.140204 10.186980 -3.793192 -41.004324 -8.817488 -10.831550 -45.774791 60.383940 102.824133 0.000448 96.003315 -0.000385 -50.065444 -21.295338 -22.559869 -9.791016 -0.212905 -4.378355 -3.996051 -3.304563 64.593830 4.059445 -4.619356 82.610510 2.316010 -4.027434 59.794481 -0.000000 0.000000 -0.000003 -10.391913 0.105173 -2.349917 -3.348728 -2.601013 57.010534 5.441669 -4.591620 99.698161 1.689066 -3.590749 50.389458 0.000000 0.000001 0.000002 -10.779222 0.000003 -0.000007 3.413307 -7.186815 51.650194 6.297781 -4.360261 110.634701 0.248563 -1.502728 18.797427 -0.000001 -0.000000 -0.000000 -10.577330 -0.175368 2.287344 -0.920015 1.683436 12.434989 0.748235 -2.533837 32.898269 0.616226 -2.317291 29.775117 0.000000 0.000000 0.000001 -2.570414 -1.245126 2.319046 8.377480 -4.904319 11.022406 -3.518802 -2.031537 2.031569 21.620030 -18.183932 -18.379363 -3.945263 -2.277766 2.277744 -0.699488 -49.821463 -32.527003 -0.000002 0.000004 0.000000 9.633796 -3.273308 0.000001 -19.377363 43.940813 26.981443 21.964271 0.464220 -0.654706 1.971713 1.266951 -3.164621 -0.183302 -12.185705 8.282298 -0.000087 0.000005 -0.000007 0.000000 0.000001 -0.000000 -9.633804 -3.273291 0.000002 5.207269 4.943007 -5.397256 31.136500 -0.265784 1.091437 -21.938675 -17.422264 3.899033 -0.183303 -12.185699 8.282299 -0.020502 -0.000006 0.000002 -0.000000 0.000003 -0.000000 
-1.758514 92.724121 -1.179131 -16.904252 -38.980880 -9.362756 0.000010 9.226302 1.577099 7.313729 -0.352285 1.495922 0.000003 16.254000 -0.165600 14.703867 0.031520 4.513769 0.000004 13.639573 -1.292292 14.682897 1.035415 6.877545 0.000001 13.877401 -4.354202 -8.636089 11.413944 3.164660 0.000004 4.340012 0.926899 -0.000000 0.000000 -0.000001 0.000002 4.026626 0.858500 -7.723019 27.151469 -1.333658 -0.000003 21.748825 0.000001 0.000000 0.000000 0.000001 3.005697 7.261795 7.955600 0.000000 0.000000 0.000001 -3.005700 7.261795 7.955601 0.000000 0.000000 0.000001 -0.000003 2.030304 2.456200 0.000000 0.000000 0.000001 6.144200 10.186987 -3.793196 -36.424340 -4.378487 6.908775 -28.794128 15.979321 -73.922857 0.000093 -59.237595 0.000058 -117.373358 6.262612 21.879620 2.421022 -1.395556 2.392363 4.218906 6.251472 1.919375 3.496506 -2.018693 2.018724 19.410226 -4.923295 6.295148 4.011405 -2.316017 2.315977 -4.536150 -9.613133 1.492937 2.095766 -1.210037 1.209985 0.000001 0.000003 0.000006 10.514776 -0.231366 2.264852 -0.388016 2.751780 -25.697549 2.017352 4.423648 -49.012167 0.152416 1.328946 -13.082954 2.334341 0.000017 0.000010 -0.000002 -0.000000 0.000001 10.490762 -0.000027 0.000001 -0.040004 4.516434 -42.384363 2.493613 4.794897 -54.933692 0.054082 0.795037 -7.782175 2.752069 -0.000047 0.000020 0.000001 -0.000000 -0.000001 10.240758 -0.046069 -2.314145 -0.511081 4.739382 -51.654767 3.154110 5.187539 -62.610760 0.236667 1.660371 -16.335471 0.000000 -0.000001 0.000000 9.820261 -0.209757 -4.418461 -6.658208 3.173661 -66.123983 2.473512 4.780778 -54.692818 0.050290 0.766757 -7.503555 -0.000004 -0.000000 -0.000004 -6.140201 10.186987 -3.793190 -40.398960 -9.907808 -14.710025 -62.409549 60.837574 120.310709 -0.000764 86.241199 0.000632 -47.437392 -23.692425 -17.798344 -9.791004 -0.212897 -4.378362 -3.996050 -3.304564 64.593830 4.059445 -4.619358 82.610510 2.316011 -4.027433 59.794474 -0.000001 -0.000000 -0.000001 -10.391910 0.105196 -2.349899 -3.348729 -2.601014 57.010530 5.441669 -4.591618 99.698161 1.689066 -3.590749 50.389461 -0.000000 0.000001 0.000003 -10.779233 0.000010 -0.000017 3.413308 -7.186816 51.650194 6.297782 -4.360261 110.634701 0.248563 -1.502728 18.797425 -0.000000 -0.000000 -0.000002 -10.577324 -0.175352 2.287324 -0.920015 1.683436 12.434988 0.748235 -2.533837 32.898269 0.616226 -2.317291 29.775113 -0.000000 0.000000 0.000001 -2.570424 -1.245109 2.319032 8.377482 -4.904318 11.022403 -3.518806 -2.031530 2.031585 21.620026 -18.183934 -18.379361 -3.945256 -2.277766 2.277744 -0.699487 -49.821463 -32.527007 -0.000001 0.000002 0.000002 9.633798 -3.273295 -0.000001 -19.697074 43.680515 27.872277 20.325243 0.361509 -0.642008 5.094028 1.148626 -3.850393 -0.183302 -12.185705 8.282300 -2.884590 0.000008 -0.000001 0.000000 -0.000001 -0.000000 -9.633803 -3.273292 -0.000003 4.693837 4.635030 -4.231245 31.805671 -0.313841 1.090821 -22.494811 -17.209891 2.684249 -0.183299 -12.185700 8.282301 -0.020500 -0.000011 0.000002 0.000000 0.000003 -0.000000 
-2.076748 92.419823 -1.676255 -16.904143 -38.980392 -9.365858 0.000010 9.226311 1.577098 6.590258 -1.322142 2.171374 0.000000 16.253979 -0.165600 14.924520 -0.350373 4.583566 0.000001 13.639565 -1.292299 15.173595 -0.022827 6.811857 0.000002 13.877398 -4.354197 -9.617077 10.858774 3.726666 0.000007 4.339996 0.926902 0.000001 -0.000000 -0.000001 0.000000 4.026594 0.858501 -14.440483 26.397110 1.403094 0.000010 21.748825 0.000002 -0.000000 0.000000 -0.000002 3.005708 7.261810 7.955602 -0.000000 0.000000 -0.000002 -3.005689 7.261826 7.955603 -0.000000 0.000000 -0.000002 0.000009 2.030304 2.456201 -0.000000 0.000000 -0.000002 6.144197 10.187001 -3.793184 -35.416488 -7.658638 21.294312 -20.078055 22.134770 -81.388650 0.000102 -56.875371 0.000059 -124.444558 6.979629 17.113787 2.421023 -1.395543 2.392365 4.179102 6.000953 1.829161 3.496507 -2.018707 2.018725 19.402073 -5.184658 6.191269 4.011406 -2.315985 2.315970 -4.536151 -9.613129 1.492936 2.095778 -1.210008 1.209997 -0.000001 0.000004 0.000004 10.514770 -0.231385 2.264847 -0.389620 2.731155 -25.518738 2.003461 4.411575 -48.831949 0.148273 1.311065 -12.903721 2.334335 0.000013 0.000005 0.000000 -0.000000 0.000000 10.490770 -0.000032 0.000002 -0.041885 4.512277 -42.351069 2.490799 4.792937 -54.900132 0.053630 0.791664 -7.748863 2.752059 -0.000032 0.000018 -0.000006 -0.000001 0.000000 10.240767 -0.046062 -2.314148 -0.526369 4.694199 -51.243450 3.116600 5.167943 -62.195907 0.224955 1.619856 -15.923630 -0.000004 -0.000002 0.000004 9.820253 -0.209753 -4.418464 -6.646199 2.942818 -65.041856 2.346495 4.688557 -53.154083 0.036375 0.652527 -6.380556 0.000003 -0.000000 -0.000001 -6.140201 10.187007 -3.793195 -40.287755 -10.621183 -15.410681 -72.004995 58.737441 130.243033 -0.000250 83.916182 0.000152 -47.307096 -25.435811 -17.856973 -9.791016 -0.212909 -4.378332 -3.996050 -3.304563 64.593830 4.059445 -4.619356 82.610510 2.316011 -4.027434 59.794474 -0.000001 0.000000 0.000002 -10.391929 0.105181 -2.349891 -3.348728 -2.601013 57.010534 5.441670 -4.591617 99.698161 1.689065 -3.590749 50.389464 -0.000000 0.000000 -0.000001 -10.779229 0.000018 -0.000005 3.413308 -7.186815 51.650198 6.297781 -4.360261 110.634694 0.248563 -1.502728 18.797427 -0.000001 -0.000000 0.000001 -10.577324 -0.175349 2.287336 -0.920016 1.683437 12.434987 0.748235 -2.533838 32.898262 0.616225 -2.317291 29.775110 0.000000 -0.000001 0.000000 -2.570428 -1.245121 2.319062 8.377481 -4.904318 11.022400 -3.518809 -2.031549 2.031573 21.620031 -18.183936 -18.379361 -3.945263 -2.277740 2.277726 -0.699489 -49.821463 -32.527000 -0.000002 0.000001 0.000002 9.633792 -3.273308 -0.000003 -21.607170 42.881485 29.375882 22.240073 0.254584 -0.642248 6.157853 1.097878 -4.068465 -0.183301 -12.185705 8.282298 -4.571058 0.000016 -0.000001 0.000000 0.000001 -0.000000 -9.633805 -3.273299 -0.000002 3.747239 4.559980 -3.783617 33.494852 -0.282941 1.092831 -23.373315 -17.149469 2.274310 -0.183300 -12.185699 8.282301 -0.020503 -0.000009 -0.000002 -0.000000 -0.000001 -0.000000 
